<svg xmlns="http://www.w3.org/2000/svg" width="946.594" height="131.719" viewBox="0 0 946.594 131.719">
  <defs>
    <style>
      .cls-1 {
        fill: #1b1b1b;
        stroke: #000;
        stroke-width: 1px;
        fill-rule: evenodd;
      }
    </style>
  </defs>
  <path id="WinterPrise" class="cls-1" d="M161.31,428.422l-15.427,66.187q-0.915,3.981-2.115,9.87t-2.24,11.819q-1.038,5.931-1.617,10.077-0.333-3.067-1.037-7.257t-1.534-8.584q-0.831-4.4-1.618-8.17t-1.368-6.013l-17.667-67.929h-24.3L74.719,496.351q-0.665,2.322-1.493,6.054t-1.617,8.087q-0.789,4.354-1.451,8.543t-1.078,7.34q-0.332-3.067-1.037-7.257t-1.576-8.709q-0.871-4.519-1.742-8.667t-1.534-7.133L47.68,428.422h-25.3L53.32,549.682h29.2l16.339-63.533q0.5-1.99,1.327-5.806t1.7-8.211q0.871-4.4,1.576-8.294t0.954-6.221q0.249,2.323.954,6.262t1.617,8.377q0.912,4.438,1.742,8.17t1.327,5.557l16.422,63.7h29.279l30.854-121.26h-25.3Zm38.567,28.532v92.728h25.3V456.954h-25.3Zm2.945-33.716q-4.024,2.613-4.023,9.746,0,7.05,4.023,9.745a18.886,18.886,0,0,0,19.449,0q4.064-2.694,4.065-9.745,0-7.132-4.065-9.746A19.4,19.4,0,0,0,202.822,423.238Zm90.323,33.384a31.86,31.86,0,0,0-9.87,4.4,25.375,25.375,0,0,0-7.424,7.8h-1.41l-3.4-11.86H251.716v92.728h25.3V506.055q0-14.847,4.23-22.726t15.841-7.88q7.714,0,11.322,5.06t3.608,15.012v54.161h25.3V489.218q0-17.832-9.041-25.919t-23.887-8.087A44.543,44.543,0,0,0,293.145,456.622Zm101.271,71.951q-3.029-2.613-3.027-7.921V475.947h25.96V456.954h-25.96v-19.74H375.215l-7.3,19.574-13.934,8.46v10.7h12.109v44.705q0,11.944,3.774,18.621a20.754,20.754,0,0,0,10.368,9.372,39.058,39.058,0,0,0,14.888,2.7,67.176,67.176,0,0,0,13.146-1.2,47.693,47.693,0,0,0,10.077-3.027V528.283a79.813,79.813,0,0,1-7.838,2.073,39.071,39.071,0,0,1-8.086.83A11.819,11.819,0,0,1,394.416,528.573Zm57.934-67.929A37.309,37.309,0,0,0,436.965,476.9q-5.517,10.824-5.516,27.08,0,16.008,6.1,26.541A38.093,38.093,0,0,0,454.382,546.2a56.475,56.475,0,0,0,24.675,5.143,90.206,90.206,0,0,0,18.206-1.576,60.316,60.316,0,0,0,14.39-4.977V525.214a82.549,82.549,0,0,1-15.178,5.474,67.7,67.7,0,0,1-16.256,1.825q-10.7,0-16.713-6.1t-6.428-16.8h59.8V497.346q0-13.518-5.06-22.892a34.268,34.268,0,0,0-14.349-14.307q-9.29-4.933-22.145-4.935Q462.22,455.212,452.35,460.644Zm32.969,15.137a15.949,15.949,0,0,1,5.806,6.967,25.482,25.482,0,0,1,2.032,10.036h-35.5q0.745-10.118,5.6-14.846a16.817,16.817,0,0,1,12.234-4.728A17.38,17.38,0,0,1,485.319,475.781Zm92.48-18.2a32.876,32.876,0,0,0-9.373,6.3,39.252,39.252,0,0,0-6.842,8.667H560.34l-3.733-15.592H537.448v92.728h25.3V502.488a26.025,26.025,0,0,1,2.115-11.072,19.216,19.216,0,0,1,5.764-7.3,23.69,23.69,0,0,1,8.253-4.023,36.254,36.254,0,0,1,9.5-1.244q1.658,0,3.94.207a16.494,16.494,0,0,1,3.525.622l1.907-23.721a34.649,34.649,0,0,0-4.105-.539q-2.532-.206-4.438-0.207A27.523,27.523,0,0,0,577.8,457.576Zm40.6-29.154v121.26h8.543v-50.1H645.6a74.591,74.591,0,0,0,20.031-2.4,38.407,38.407,0,0,0,14.307-7.133,29.483,29.483,0,0,0,8.584-11.653,41.3,41.3,0,0,0,2.862-15.883q0-17.5-10.783-25.8t-32.43-8.294H618.4Zm55.57,13.975q8.625,6.429,8.626,20.445,0,11.033-4.562,17.418a24.586,24.586,0,0,1-13.021,9.082,67.036,67.036,0,0,1-20.238,2.7H626.942V435.969h20.32Q665.343,435.969,673.969,442.4Zm65.275,18.04a27.907,27.907,0,0,0-9.165,6.677,31.038,31.038,0,0,0-5.847,9.414h-0.5l-0.83-17h-7.215v90.157h8.46V499.917a50.646,50.646,0,0,1,1.824-14.1,31.714,31.714,0,0,1,5.309-10.782,23.532,23.532,0,0,1,8.5-6.884,26.054,26.054,0,0,1,11.4-2.406,46.19,46.19,0,0,1,6.055.374,42.09,42.09,0,0,1,5.557,1.119l1.327-7.713a44.427,44.427,0,0,0-5.889-1.161,51.478,51.478,0,0,0-6.718-.415A28.97,28.97,0,0,0,739.244,460.437Zm42.466-.912v90.157h8.377V459.525H781.71Zm-0.166-31.476a7.807,7.807,0,0,0-1.493,5.017,7.633,7.633,0,0,0,1.493,4.977,5.446,5.446,0,0,0,4.479,1.825,5.651,5.651,0,0,0,4.644-1.825,7.627,7.627,0,0,0,1.493-4.977,7.8,7.8,0,0,0-1.493-5.017,5.588,5.588,0,0,0-4.644-1.867A5.388,5.388,0,0,0,781.544,428.049Zm90.986,85.139a29.254,29.254,0,0,0-10.658-7.714q-6.676-2.985-14.556-5.723-7.632-2.653-13.187-4.852a22.541,22.541,0,0,1-8.543-5.474q-2.986-3.276-2.986-9.082a12.674,12.674,0,0,1,6.22-11.446q6.22-3.9,17.252-3.9a61.732,61.732,0,0,1,13.437,1.493,57.432,57.432,0,0,1,11.86,3.9l2.986-7.133a73.46,73.46,0,0,0-12.731-3.94,70.808,70.808,0,0,0-15.137-1.534q-14.68,0-23.39,6.055t-8.708,16.92q0,7.962,3.649,12.565a25.389,25.389,0,0,0,10.077,7.382q6.428,2.78,14.722,5.6a140.333,140.333,0,0,1,13.6,5.225,24.753,24.753,0,0,1,8.667,6.1,13.2,13.2,0,0,1,3.028,8.916A15.448,15.448,0,0,1,862,539.48q-6.139,4.728-20.072,4.728a62.987,62.987,0,0,1-15.51-1.908,69.515,69.515,0,0,1-13.768-4.976v8.294a57.714,57.714,0,0,0,12.358,4.064,76.793,76.793,0,0,0,16.754,1.659q11.279,0,18.994-2.945a24.653,24.653,0,0,0,11.736-8.626,23.14,23.14,0,0,0,4.023-13.726Q876.512,517.916,872.53,513.188Zm39.356-49.143a38.909,38.909,0,0,0-13.271,17.044,62.316,62.316,0,0,0-4.52,24.3q0,13.852,4.686,24.219a35.453,35.453,0,0,0,13.934,16.049q9.247,5.682,22.934,5.682a76.133,76.133,0,0,0,15.261-1.369,63.667,63.667,0,0,0,13.27-4.354V537.9a74.843,74.843,0,0,1-13.726,4.686,67.976,67.976,0,0,1-14.557,1.369q-16.008,0-24.592-9.953t-8.584-28.532H967.83v-6.055a57.182,57.182,0,0,0-3.774-21.481,32.306,32.306,0,0,0-11.446-14.764q-7.673-5.391-19.2-5.391Q920.635,457.783,911.886,464.045Zm35.914,5.142a25.014,25.014,0,0,1,8.5,11.737,49.626,49.626,0,0,1,2.82,17.417H902.97q1.409-16.173,9.414-24.758T933.326,465Q942.118,465,947.8,469.187Z" transform="translate(-21.75 -420.125)"/>
</svg>
